<?xml version="1.0" encoding="UTF-8" standalone="no"?>
<!DOCTYPE svg PUBLIC "-//W3C//DTD SVG 1.1//EN"
 "http://www.w3.org/Graphics/SVG/1.1/DTD/svg11.dtd">
<!-- Generated by graphviz version 2.47.3 (20210619.1520)
 -->
<!-- Title: dependencies Pages: 1 -->
<svg width="1619pt" height="174pt"
 viewBox="0.00 0.00 1619.00 173.80" xmlns="http://www.w3.org/2000/svg" xmlns:xlink="http://www.w3.org/1999/xlink">
<g id="graph0" class="graph" transform="scale(1 1) rotate(0) translate(4 169.8)">
<title>dependencies</title>
<polygon fill="white" stroke="transparent" points="-4,4 -4,-169.8 1615,-169.8 1615,4 -4,4"/>
<text text-anchor="middle" x="805.5" y="-8.2" font-family="sans-serif" font-size="14.00">dependencies</text>
<g id="clust1" class="cluster">
<title>cluster_AppModule</title>
<polygon fill="none" stroke="black" stroke-dasharray="1,5" points="8,-32.8 8,-157.8 1603,-157.8 1603,-32.8 8,-32.8"/>
</g>
<g id="clust3" class="cluster">
<title>cluster_AppModule_imports</title>
<polygon fill="none" stroke="black" points="16,-40.8 16,-92.8 1595,-92.8 1595,-40.8 16,-40.8"/>
</g>
<!-- AuthenticationModule -->
<g id="node1" class="node">
<title>AuthenticationModule</title>
<polygon fill="#8dd3c7" stroke="black" points="1587.25,-84.8 1584.25,-88.8 1563.25,-88.8 1560.25,-84.8 1444.75,-84.8 1444.75,-48.8 1587.25,-48.8 1587.25,-84.8"/>
<text text-anchor="middle" x="1516" y="-62.6" font-family="Times,serif" font-size="14.00">AuthenticationModule</text>
</g>
<!-- AppModule -->
<g id="node13" class="node">
<title>AppModule</title>
<polygon fill="#8dd3c7" stroke="black" points="754.66,-149.8 751.66,-153.8 730.66,-153.8 727.66,-149.8 671.34,-149.8 671.34,-113.8 754.66,-113.8 754.66,-149.8"/>
<text text-anchor="middle" x="713" y="-127.6" font-family="Times,serif" font-size="14.00">AppModule</text>
</g>
<!-- AuthenticationModule&#45;&gt;AppModule -->
<g id="edge1" class="edge">
<title>AuthenticationModule&#45;&gt;AppModule</title>
<path fill="none" stroke="black" d="M1516,-84.89C1516,-107.93 1516,-144.8 1516,-144.8 1516,-144.8 764.76,-144.8 764.76,-144.8"/>
<polygon fill="black" stroke="black" points="764.76,-141.3 754.76,-144.8 764.76,-148.3 764.76,-141.3"/>
</g>
<!-- CategoriesModule -->
<g id="node2" class="node">
<title>CategoriesModule</title>
<polygon fill="#8dd3c7" stroke="black" points="1426.92,-84.8 1423.92,-88.8 1402.92,-88.8 1399.92,-84.8 1307.08,-84.8 1307.08,-48.8 1426.92,-48.8 1426.92,-84.8"/>
<text text-anchor="middle" x="1367" y="-62.6" font-family="Times,serif" font-size="14.00">CategoriesModule</text>
</g>
<!-- CategoriesModule&#45;&gt;AppModule -->
<g id="edge2" class="edge">
<title>CategoriesModule&#45;&gt;AppModule</title>
<path fill="none" stroke="black" d="M1367,-85.08C1367,-106.12 1367,-137.8 1367,-137.8 1367,-137.8 764.91,-137.8 764.91,-137.8"/>
<polygon fill="black" stroke="black" points="764.91,-134.3 754.91,-137.8 764.91,-141.3 764.91,-134.3"/>
</g>
<!-- CompaniesModule -->
<g id="node3" class="node">
<title>CompaniesModule</title>
<polygon fill="#8dd3c7" stroke="black" points="1289.04,-84.8 1286.04,-88.8 1265.04,-88.8 1262.04,-84.8 1166.96,-84.8 1166.96,-48.8 1289.04,-48.8 1289.04,-84.8"/>
<text text-anchor="middle" x="1228" y="-62.6" font-family="Times,serif" font-size="14.00">CompaniesModule</text>
</g>
<!-- CompaniesModule&#45;&gt;AppModule -->
<g id="edge3" class="edge">
<title>CompaniesModule&#45;&gt;AppModule</title>
<path fill="none" stroke="black" d="M1228,-84.91C1228,-104.14 1228,-131.8 1228,-131.8 1228,-131.8 764.71,-131.8 764.71,-131.8"/>
<polygon fill="black" stroke="black" points="764.71,-128.3 754.71,-131.8 764.71,-135.3 764.71,-128.3"/>
</g>
<!-- DatabaseModule -->
<g id="node4" class="node">
<title>DatabaseModule</title>
<polygon fill="#8dd3c7" stroke="black" points="1148.35,-84.8 1145.35,-88.8 1124.35,-88.8 1121.35,-84.8 1037.65,-84.8 1037.65,-48.8 1148.35,-48.8 1148.35,-84.8"/>
<text text-anchor="middle" x="1093" y="-62.6" font-family="Times,serif" font-size="14.00">DatabaseModule</text>
</g>
<!-- DatabaseModule&#45;&gt;AppModule -->
<g id="edge4" class="edge">
<title>DatabaseModule&#45;&gt;AppModule</title>
<path fill="none" stroke="black" d="M1093,-84.82C1093,-102.17 1093,-125.8 1093,-125.8 1093,-125.8 764.75,-125.8 764.75,-125.8"/>
<polygon fill="black" stroke="black" points="764.75,-122.3 754.75,-125.8 764.75,-129.3 764.75,-122.3"/>
</g>
<!-- EmailConfirmationModule -->
<g id="node5" class="node">
<title>EmailConfirmationModule</title>
<polygon fill="#8dd3c7" stroke="black" points="1019.42,-84.8 1016.42,-88.8 995.42,-88.8 992.42,-84.8 850.58,-84.8 850.58,-48.8 1019.42,-48.8 1019.42,-84.8"/>
<text text-anchor="middle" x="935" y="-62.6" font-family="Times,serif" font-size="14.00">EmailConfirmationModule</text>
</g>
<!-- EmailConfirmationModule&#45;&gt;AppModule -->
<g id="edge5" class="edge">
<title>EmailConfirmationModule&#45;&gt;AppModule</title>
<path fill="none" stroke="black" d="M935,-85.04C935,-100.37 935,-119.8 935,-119.8 935,-119.8 764.76,-119.8 764.76,-119.8"/>
<polygon fill="black" stroke="black" points="764.76,-116.3 754.76,-119.8 764.76,-123.3 764.76,-116.3"/>
</g>
<!-- ManagersModule -->
<g id="node6" class="node">
<title>ManagersModule</title>
<polygon fill="#8dd3c7" stroke="black" points="832.24,-84.8 829.24,-88.8 808.24,-88.8 805.24,-84.8 717.76,-84.8 717.76,-48.8 832.24,-48.8 832.24,-84.8"/>
<text text-anchor="middle" x="775" y="-62.6" font-family="Times,serif" font-size="14.00">ManagersModule</text>
</g>
<!-- ManagersModule&#45;&gt;AppModule -->
<g id="edge6" class="edge">
<title>ManagersModule&#45;&gt;AppModule</title>
<path fill="none" stroke="black" d="M736.23,-84.91C736.23,-84.91 736.23,-103.79 736.23,-103.79"/>
<polygon fill="black" stroke="black" points="732.73,-103.79 736.23,-113.79 739.73,-103.79 732.73,-103.79"/>
</g>
<!-- OrdersModule -->
<g id="node7" class="node">
<title>OrdersModule</title>
<polygon fill="#8dd3c7" stroke="black" points="699.64,-84.8 696.64,-88.8 675.64,-88.8 672.64,-84.8 602.36,-84.8 602.36,-48.8 699.64,-48.8 699.64,-84.8"/>
<text text-anchor="middle" x="651" y="-62.6" font-family="Times,serif" font-size="14.00">OrdersModule</text>
</g>
<!-- OrdersModule&#45;&gt;AppModule -->
<g id="edge7" class="edge">
<title>OrdersModule&#45;&gt;AppModule</title>
<path fill="none" stroke="black" d="M685.5,-84.91C685.5,-84.91 685.5,-103.79 685.5,-103.79"/>
<polygon fill="black" stroke="black" points="682,-103.79 685.5,-113.79 689,-103.79 682,-103.79"/>
</g>
<!-- PricesModule -->
<g id="node8" class="node">
<title>PricesModule</title>
<polygon fill="#8dd3c7" stroke="black" points="583.76,-84.8 580.76,-88.8 559.76,-88.8 556.76,-84.8 490.24,-84.8 490.24,-48.8 583.76,-48.8 583.76,-84.8"/>
<text text-anchor="middle" x="537" y="-62.6" font-family="Times,serif" font-size="14.00">PricesModule</text>
</g>
<!-- PricesModule&#45;&gt;AppModule -->
<g id="edge8" class="edge">
<title>PricesModule&#45;&gt;AppModule</title>
<path fill="none" stroke="black" d="M537,-85.04C537,-100.37 537,-119.8 537,-119.8 537,-119.8 661.29,-119.8 661.29,-119.8"/>
<polygon fill="black" stroke="black" points="661.29,-123.3 671.29,-119.8 661.29,-116.3 661.29,-123.3"/>
</g>
<!-- ProductsModule -->
<g id="node9" class="node">
<title>ProductsModule</title>
<polygon fill="#8dd3c7" stroke="black" points="472.04,-84.8 469.04,-88.8 448.04,-88.8 445.04,-84.8 363.96,-84.8 363.96,-48.8 472.04,-48.8 472.04,-84.8"/>
<text text-anchor="middle" x="418" y="-62.6" font-family="Times,serif" font-size="14.00">ProductsModule</text>
</g>
<!-- ProductsModule&#45;&gt;AppModule -->
<g id="edge9" class="edge">
<title>ProductsModule&#45;&gt;AppModule</title>
<path fill="none" stroke="black" d="M418,-84.82C418,-102.17 418,-125.8 418,-125.8 418,-125.8 661.05,-125.8 661.05,-125.8"/>
<polygon fill="black" stroke="black" points="661.05,-129.3 671.05,-125.8 661.05,-122.3 661.05,-129.3"/>
</g>
<!-- SearchModule -->
<g id="node10" class="node">
<title>SearchModule</title>
<polygon fill="#8dd3c7" stroke="black" points="345.64,-84.8 342.64,-88.8 321.64,-88.8 318.64,-84.8 248.36,-84.8 248.36,-48.8 345.64,-48.8 345.64,-84.8"/>
<text text-anchor="middle" x="297" y="-62.6" font-family="Times,serif" font-size="14.00">SearchModule</text>
</g>
<!-- SearchModule&#45;&gt;AppModule -->
<g id="edge10" class="edge">
<title>SearchModule&#45;&gt;AppModule</title>
<path fill="none" stroke="black" d="M297,-84.91C297,-104.14 297,-131.8 297,-131.8 297,-131.8 661.21,-131.8 661.21,-131.8"/>
<polygon fill="black" stroke="black" points="661.21,-135.3 671.21,-131.8 661.21,-128.3 661.21,-135.3"/>
</g>
<!-- SentryModule -->
<g id="node11" class="node">
<title>SentryModule</title>
<polygon fill="#8dd3c7" stroke="black" points="230.1,-84.8 227.1,-88.8 206.1,-88.8 203.1,-84.8 133.9,-84.8 133.9,-48.8 230.1,-48.8 230.1,-84.8"/>
<text text-anchor="middle" x="182" y="-62.6" font-family="Times,serif" font-size="14.00">SentryModule</text>
</g>
<!-- SentryModule&#45;&gt;AppModule -->
<g id="edge11" class="edge">
<title>SentryModule&#45;&gt;AppModule</title>
<path fill="none" stroke="black" d="M182,-85.08C182,-106.12 182,-137.8 182,-137.8 182,-137.8 661.33,-137.8 661.33,-137.8"/>
<polygon fill="black" stroke="black" points="661.33,-141.3 671.33,-137.8 661.33,-134.3 661.33,-141.3"/>
</g>
<!-- UsersModule -->
<g id="node12" class="node">
<title>UsersModule</title>
<polygon fill="#8dd3c7" stroke="black" points="115.92,-84.8 112.92,-88.8 91.92,-88.8 88.92,-84.8 24.08,-84.8 24.08,-48.8 115.92,-48.8 115.92,-84.8"/>
<text text-anchor="middle" x="70" y="-62.6" font-family="Times,serif" font-size="14.00">UsersModule</text>
</g>
<!-- UsersModule&#45;&gt;AppModule -->
<g id="edge12" class="edge">
<title>UsersModule&#45;&gt;AppModule</title>
<path fill="none" stroke="black" d="M70,-84.89C70,-107.93 70,-144.8 70,-144.8 70,-144.8 661.31,-144.8 661.31,-144.8"/>
<polygon fill="black" stroke="black" points="661.31,-148.3 671.31,-144.8 661.31,-141.3 661.31,-148.3"/>
</g>
</g>
</svg>
