<?xml version="1.0" encoding="UTF-8" standalone="no"?>
<!DOCTYPE svg PUBLIC "-//W3C//DTD SVG 1.1//EN"
 "http://www.w3.org/Graphics/SVG/1.1/DTD/svg11.dtd">
<!-- Generated by graphviz version 2.47.3 (20210619.1520)
 -->
<!-- Title: dependencies Pages: 1 -->
<svg width="3293pt" height="410pt"
 viewBox="0.00 0.00 3293.00 409.80" xmlns="http://www.w3.org/2000/svg" xmlns:xlink="http://www.w3.org/1999/xlink">
<g id="graph0" class="graph" transform="scale(1 1) rotate(0) translate(4 405.8)">
<title>dependencies</title>
<polygon fill="white" stroke="transparent" points="-4,4 -4,-405.8 3289,-405.8 3289,4 -4,4"/>
<text text-anchor="middle" x="1642.5" y="-8.2" font-family="sans-serif" font-size="14.00">dependencies</text>
<g id="clust1" class="cluster">
<title>cluster_AppModule</title>
<polygon fill="none" stroke="black" stroke-dasharray="1,5" points="548,-108.8 548,-393.8 1651,-393.8 1651,-108.8 548,-108.8"/>
</g>
<g id="clust3" class="cluster">
<title>cluster_AppModule_imports</title>
<polygon fill="none" stroke="black" points="648,-116.8 648,-385.8 1643,-385.8 1643,-116.8 648,-116.8"/>
</g>
<g id="clust7" class="cluster">
<title>cluster_AuthenticationModule</title>
<polygon fill="none" stroke="black" stroke-dasharray="1,5" points="1659,-260.8 1659,-328.8 3088,-328.8 3088,-260.8 1659,-260.8"/>
</g>
<g id="clust10" class="cluster">
<title>cluster_AuthenticationModule_exports</title>
<polygon fill="none" stroke="black" points="2920,-268.8 2920,-320.8 3080,-320.8 3080,-268.8 2920,-268.8"/>
</g>
<g id="clust12" class="cluster">
<title>cluster_AuthenticationModule_providers</title>
<polygon fill="none" stroke="black" points="1667,-268.8 1667,-320.8 2912,-320.8 2912,-268.8 1667,-268.8"/>
</g>
<g id="clust19" class="cluster">
<title>cluster_CompaniesModule</title>
<polygon fill="none" stroke="black" stroke-dasharray="1,5" points="1659,-184.8 1659,-252.8 2005,-252.8 2005,-184.8 1659,-184.8"/>
</g>
<g id="clust22" class="cluster">
<title>cluster_CompaniesModule_exports</title>
<polygon fill="none" stroke="black" points="1857,-192.8 1857,-244.8 1997,-244.8 1997,-192.8 1857,-192.8"/>
</g>
<g id="clust24" class="cluster">
<title>cluster_CompaniesModule_providers</title>
<polygon fill="none" stroke="black" points="1667,-192.8 1667,-244.8 1849,-244.8 1849,-192.8 1667,-192.8"/>
</g>
<g id="clust31" class="cluster">
<title>cluster_EmailConfirmationModule</title>
<polygon fill="none" stroke="black" stroke-dasharray="1,5" points="2637,-184.8 2637,-252.8 3209,-252.8 3209,-184.8 2637,-184.8"/>
</g>
<g id="clust33" class="cluster">
<title>cluster_EmailConfirmationModule_imports</title>
<polygon fill="none" stroke="black" points="3093,-192.8 3093,-244.8 3201,-244.8 3201,-192.8 3093,-192.8"/>
</g>
<g id="clust34" class="cluster">
<title>cluster_EmailConfirmationModule_exports</title>
<polygon fill="none" stroke="black" points="2899,-192.8 2899,-244.8 3085,-244.8 3085,-192.8 2899,-192.8"/>
</g>
<g id="clust36" class="cluster">
<title>cluster_EmailConfirmationModule_providers</title>
<polygon fill="none" stroke="black" points="2645,-192.8 2645,-244.8 2891,-244.8 2891,-192.8 2645,-192.8"/>
</g>
<g id="clust37" class="cluster">
<title>cluster_EmailModule</title>
<polygon fill="none" stroke="black" stroke-dasharray="1,5" points="3001,-108.8 3001,-176.8 3277,-176.8 3277,-108.8 3001,-108.8"/>
</g>
<g id="clust40" class="cluster">
<title>cluster_EmailModule_exports</title>
<polygon fill="none" stroke="black" points="3159,-116.8 3159,-168.8 3269,-168.8 3269,-116.8 3159,-116.8"/>
</g>
<g id="clust42" class="cluster">
<title>cluster_EmailModule_providers</title>
<polygon fill="none" stroke="black" points="3009,-116.8 3009,-168.8 3151,-168.8 3151,-116.8 3009,-116.8"/>
</g>
<g id="clust43" class="cluster">
<title>cluster_ManagersModule</title>
<polygon fill="none" stroke="black" stroke-dasharray="1,5" points="2013,-184.8 2013,-252.8 2341,-252.8 2341,-184.8 2013,-184.8"/>
</g>
<g id="clust46" class="cluster">
<title>cluster_ManagersModule_exports</title>
<polygon fill="none" stroke="black" points="2201,-192.8 2201,-244.8 2333,-244.8 2333,-192.8 2201,-192.8"/>
</g>
<g id="clust48" class="cluster">
<title>cluster_ManagersModule_providers</title>
<polygon fill="none" stroke="black" points="2021,-192.8 2021,-244.8 2193,-244.8 2193,-192.8 2021,-192.8"/>
</g>
<g id="clust55" class="cluster">
<title>cluster_PricesModule</title>
<polygon fill="none" stroke="black" stroke-dasharray="1,5" points="2349,-184.8 2349,-252.8 2629,-252.8 2629,-184.8 2349,-184.8"/>
</g>
<g id="clust58" class="cluster">
<title>cluster_PricesModule_exports</title>
<polygon fill="none" stroke="black" points="2509,-192.8 2509,-244.8 2621,-244.8 2621,-192.8 2509,-192.8"/>
</g>
<g id="clust60" class="cluster">
<title>cluster_PricesModule_providers</title>
<polygon fill="none" stroke="black" points="2357,-192.8 2357,-244.8 2501,-244.8 2501,-192.8 2357,-192.8"/>
</g>
<g id="clust61" class="cluster">
<title>cluster_ProductsModule</title>
<polygon fill="none" stroke="black" stroke-dasharray="1,5" points="8,-108.8 8,-176.8 540,-176.8 540,-108.8 8,-108.8"/>
</g>
<g id="clust64" class="cluster">
<title>cluster_ProductsModule_exports</title>
<polygon fill="none" stroke="black" points="406,-116.8 406,-168.8 532,-168.8 532,-116.8 406,-116.8"/>
</g>
<g id="clust66" class="cluster">
<title>cluster_ProductsModule_providers</title>
<polygon fill="none" stroke="black" points="16,-116.8 16,-168.8 398,-168.8 398,-116.8 16,-116.8"/>
</g>
<g id="clust73" class="cluster">
<title>cluster_SentryModule</title>
<polygon fill="none" stroke="black" stroke-dasharray="1,5" points="867,-32.8 867,-100.8 1029,-100.8 1029,-32.8 867,-32.8"/>
</g>
<g id="clust78" class="cluster">
<title>cluster_SentryModule_providers</title>
<polygon fill="none" stroke="black" points="875,-40.8 875,-92.8 1021,-92.8 1021,-40.8 875,-40.8"/>
</g>
<g id="clust79" class="cluster">
<title>cluster_UsersModule</title>
<polygon fill="none" stroke="black" stroke-dasharray="1,5" points="266,-260.8 266,-328.8 540,-328.8 540,-260.8 266,-260.8"/>
</g>
<g id="clust82" class="cluster">
<title>cluster_UsersModule_exports</title>
<polygon fill="none" stroke="black" points="422,-268.8 422,-320.8 532,-320.8 532,-268.8 422,-268.8"/>
</g>
<g id="clust84" class="cluster">
<title>cluster_UsersModule_providers</title>
<polygon fill="none" stroke="black" points="274,-268.8 274,-320.8 414,-320.8 414,-268.8 274,-268.8"/>
</g>
<!-- AuthenticationModule -->
<g id="node1" class="node">
<title>AuthenticationModule</title>
<polygon fill="#8dd3c7" stroke="black" points="1635.25,-377.8 1632.25,-381.8 1611.25,-381.8 1608.25,-377.8 1492.75,-377.8 1492.75,-341.8 1635.25,-341.8 1635.25,-377.8"/>
<text text-anchor="middle" x="1564" y="-355.6" font-family="Times,serif" font-size="14.00">AuthenticationModule</text>
</g>
<!-- AppModule -->
<g id="node13" class="node">
<title>AppModule</title>
<polygon fill="#8dd3c7" stroke="black" points="639.66,-377.8 636.66,-381.8 615.66,-381.8 612.66,-377.8 556.34,-377.8 556.34,-341.8 639.66,-341.8 639.66,-377.8"/>
<text text-anchor="middle" x="598" y="-355.6" font-family="Times,serif" font-size="14.00">AppModule</text>
</g>
<!-- AuthenticationModule&#45;&gt;AppModule -->
<g id="edge1" class="edge">
<title>AuthenticationModule&#45;&gt;AppModule</title>
<path fill="none" stroke="black" d="M1492.58,-374.8C1492.58,-374.8 649.73,-374.8 649.73,-374.8"/>
<polygon fill="black" stroke="black" points="649.73,-371.3 639.73,-374.8 649.73,-378.3 649.73,-371.3"/>
</g>
<!-- AuthenticationService  -->
<g id="node14" class="node">
<title>AuthenticationService </title>
<polygon fill="#fb8072" stroke="black" points="3072.18,-312.8 2927.82,-312.8 2927.82,-276.8 3072.18,-276.8 3072.18,-312.8"/>
<text text-anchor="middle" x="3000" y="-290.6" font-family="Times,serif" font-size="14.00">AuthenticationService </text>
</g>
<!-- AuthenticationModule&#45;&gt;AuthenticationService  -->
<g id="edge15" class="edge">
<title>AuthenticationModule&#45;&gt;AuthenticationService </title>
<path fill="none" stroke="black" stroke-dasharray="5,2" d="M1635.7,-373.8C1926.18,-373.8 3000,-373.8 3000,-373.8 3000,-373.8 3000,-323.12 3000,-323.12"/>
<polygon fill="black" stroke="black" points="3003.5,-323.12 3000,-313.12 2996.5,-323.12 3003.5,-323.12"/>
</g>
<!-- CategoriesModule -->
<g id="node2" class="node">
<title>CategoriesModule</title>
<polygon fill="#8dd3c7" stroke="black" points="1133.92,-160.8 1130.92,-164.8 1109.92,-164.8 1106.92,-160.8 1014.08,-160.8 1014.08,-124.8 1133.92,-124.8 1133.92,-160.8"/>
<text text-anchor="middle" x="1074" y="-138.6" font-family="Times,serif" font-size="14.00">CategoriesModule</text>
</g>
<!-- CategoriesModule&#45;&gt;AppModule -->
<g id="edge2" class="edge">
<title>CategoriesModule&#45;&gt;AppModule</title>
<path fill="none" stroke="black" d="M1074,-160.98C1074,-211.83 1074,-351.8 1074,-351.8 1074,-351.8 649.82,-351.8 649.82,-351.8"/>
<polygon fill="black" stroke="black" points="649.82,-348.3 639.82,-351.8 649.82,-355.3 649.82,-348.3"/>
</g>
<!-- CompaniesModule -->
<g id="node3" class="node">
<title>CompaniesModule</title>
<polygon fill="#8dd3c7" stroke="black" points="1390.04,-160.8 1387.04,-164.8 1366.04,-164.8 1363.04,-160.8 1267.96,-160.8 1267.96,-124.8 1390.04,-124.8 1390.04,-160.8"/>
<text text-anchor="middle" x="1329" y="-138.6" font-family="Times,serif" font-size="14.00">CompaniesModule</text>
</g>
<!-- UsersModule -->
<g id="node12" class="node">
<title>UsersModule</title>
<polygon fill="#8dd3c7" stroke="black" points="1374.92,-236.8 1371.92,-240.8 1350.92,-240.8 1347.92,-236.8 1283.08,-236.8 1283.08,-200.8 1374.92,-200.8 1374.92,-236.8"/>
<text text-anchor="middle" x="1329" y="-214.6" font-family="Times,serif" font-size="14.00">UsersModule</text>
</g>
<!-- CompaniesModule&#45;&gt;UsersModule -->
<g id="edge40" class="edge">
<title>CompaniesModule&#45;&gt;UsersModule</title>
<path fill="none" stroke="black" d="M1329,-160.81C1329,-160.81 1329,-190.65 1329,-190.65"/>
<polygon fill="black" stroke="black" points="1325.5,-190.65 1329,-200.65 1332.5,-190.65 1325.5,-190.65"/>
</g>
<!-- CompaniesModule&#45;&gt;AppModule -->
<g id="edge3" class="edge">
<title>CompaniesModule&#45;&gt;AppModule</title>
<path fill="none" stroke="black" d="M1275.51,-160.84C1275.51,-212.76 1275.51,-358.8 1275.51,-358.8 1275.51,-358.8 649.87,-358.8 649.87,-358.8"/>
<polygon fill="black" stroke="black" points="649.87,-355.3 639.87,-358.8 649.87,-362.3 649.87,-355.3"/>
</g>
<!-- CompaniesService  -->
<g id="node21" class="node">
<title>CompaniesService </title>
<polygon fill="#fb8072" stroke="black" points="1989.47,-236.8 1864.53,-236.8 1864.53,-200.8 1989.47,-200.8 1989.47,-236.8"/>
<text text-anchor="middle" x="1927" y="-214.6" font-family="Times,serif" font-size="14.00">CompaniesService </text>
</g>
<!-- CompaniesModule&#45;&gt;CompaniesService  -->
<g id="edge22" class="edge">
<title>CompaniesModule&#45;&gt;CompaniesService </title>
<path fill="none" stroke="black" stroke-dasharray="5,2" d="M1379.9,-160.99C1379.9,-175.98 1379.9,-194.8 1379.9,-194.8 1379.9,-194.8 1927,-194.8 1927,-194.8 1927,-194.8 1927,-195.38 1927,-195.38"/>
<polygon fill="black" stroke="black" points="1923.5,-190.61 1927,-200.61 1930.5,-190.61 1923.5,-190.61"/>
</g>
<!-- DatabaseModule -->
<g id="node4" class="node">
<title>DatabaseModule</title>
<polygon fill="#8dd3c7" stroke="black" points="766.35,-160.8 763.35,-164.8 742.35,-164.8 739.35,-160.8 655.65,-160.8 655.65,-124.8 766.35,-124.8 766.35,-160.8"/>
<text text-anchor="middle" x="711" y="-138.6" font-family="Times,serif" font-size="14.00">DatabaseModule</text>
</g>
<!-- DatabaseModule&#45;&gt;AppModule -->
<g id="edge4" class="edge">
<title>DatabaseModule&#45;&gt;AppModule</title>
<path fill="none" stroke="black" d="M655.37,-142.8C618.58,-142.8 577.09,-142.8 577.09,-142.8 577.09,-142.8 577.09,-331.67 577.09,-331.67"/>
<polygon fill="black" stroke="black" points="573.59,-331.67 577.09,-341.67 580.59,-331.67 573.59,-331.67"/>
</g>
<!-- EmailConfirmationModule -->
<g id="node5" class="node">
<title>EmailConfirmationModule</title>
<polygon fill="#8dd3c7" stroke="black" points="1635.42,-312.8 1632.42,-316.8 1611.42,-316.8 1608.42,-312.8 1466.58,-312.8 1466.58,-276.8 1635.42,-276.8 1635.42,-312.8"/>
<text text-anchor="middle" x="1551" y="-290.6" font-family="Times,serif" font-size="14.00">EmailConfirmationModule</text>
</g>
<!-- EmailConfirmationModule&#45;&gt;AuthenticationModule -->
<g id="edge13" class="edge">
<title>EmailConfirmationModule&#45;&gt;AuthenticationModule</title>
<path fill="none" stroke="black" d="M1563.92,-312.91C1563.92,-312.91 1563.92,-331.79 1563.92,-331.79"/>
<polygon fill="black" stroke="black" points="1560.42,-331.79 1563.92,-341.79 1567.42,-331.79 1560.42,-331.79"/>
</g>
<!-- EmailConfirmationModule&#45;&gt;AppModule -->
<g id="edge5" class="edge">
<title>EmailConfirmationModule&#45;&gt;AppModule</title>
<path fill="none" stroke="black" d="M1479.71,-313.05C1479.71,-335.82 1479.71,-371.8 1479.71,-371.8 1479.71,-371.8 649.93,-371.8 649.93,-371.8"/>
<polygon fill="black" stroke="black" points="649.93,-368.3 639.93,-371.8 649.93,-375.3 649.93,-368.3"/>
</g>
<!-- EmailConfirmationService  -->
<g id="node24" class="node">
<title>EmailConfirmationService </title>
<polygon fill="#fb8072" stroke="black" points="3077.35,-236.8 2906.65,-236.8 2906.65,-200.8 3077.35,-200.8 3077.35,-236.8"/>
<text text-anchor="middle" x="2992" y="-214.6" font-family="Times,serif" font-size="14.00">EmailConfirmationService </text>
</g>
<!-- EmailConfirmationModule&#45;&gt;EmailConfirmationService  -->
<g id="edge26" class="edge">
<title>EmailConfirmationModule&#45;&gt;EmailConfirmationService </title>
<path fill="none" stroke="black" stroke-dasharray="5,2" d="M1556.75,-276.74C1556.75,-265.36 1556.75,-252.8 1556.75,-252.8 1556.75,-252.8 2917.24,-252.8 2917.24,-252.8 2917.24,-252.8 2917.24,-246.99 2917.24,-246.99"/>
<polygon fill="black" stroke="black" points="2920.74,-246.99 2917.24,-236.99 2913.74,-246.99 2920.74,-246.99"/>
</g>
<!-- ManagersModule -->
<g id="node6" class="node">
<title>ManagersModule</title>
<polygon fill="#8dd3c7" stroke="black" points="1523.24,-160.8 1520.24,-164.8 1499.24,-164.8 1496.24,-160.8 1408.76,-160.8 1408.76,-124.8 1523.24,-124.8 1523.24,-160.8"/>
<text text-anchor="middle" x="1466" y="-138.6" font-family="Times,serif" font-size="14.00">ManagersModule</text>
</g>
<!-- ManagersModule&#45;&gt;UsersModule -->
<g id="edge41" class="edge">
<title>ManagersModule&#45;&gt;UsersModule</title>
<path fill="none" stroke="black" d="M1428.01,-161.11C1428.01,-180.95 1428.01,-209.8 1428.01,-209.8 1428.01,-209.8 1384.74,-209.8 1384.74,-209.8"/>
<polygon fill="black" stroke="black" points="1384.74,-206.3 1374.74,-209.8 1384.74,-213.3 1384.74,-206.3"/>
</g>
<!-- ManagersModule&#45;&gt;AppModule -->
<g id="edge6" class="edge">
<title>ManagersModule&#45;&gt;AppModule</title>
<path fill="none" stroke="black" d="M1447.4,-160.97C1447.4,-213.99 1447.4,-364.8 1447.4,-364.8 1447.4,-364.8 649.83,-364.8 649.83,-364.8"/>
<polygon fill="black" stroke="black" points="649.83,-361.3 639.83,-364.8 649.83,-368.3 649.83,-361.3"/>
</g>
<!-- ManagersService  -->
<g id="node28" class="node">
<title>ManagersService </title>
<polygon fill="#fb8072" stroke="black" points="2325.17,-236.8 2208.83,-236.8 2208.83,-200.8 2325.17,-200.8 2325.17,-236.8"/>
<text text-anchor="middle" x="2267" y="-214.6" font-family="Times,serif" font-size="14.00">ManagersService </text>
</g>
<!-- ManagersModule&#45;&gt;ManagersService  -->
<g id="edge30" class="edge">
<title>ManagersModule&#45;&gt;ManagersService </title>
<path fill="none" stroke="black" stroke-dasharray="5,2" d="M1480.93,-161.04C1480.93,-168.23 1480.93,-174.8 1480.93,-174.8 1480.93,-174.8 2267,-174.8 2267,-174.8 2267,-174.8 2267,-190.65 2267,-190.65"/>
<polygon fill="black" stroke="black" points="2263.5,-190.65 2267,-200.65 2270.5,-190.65 2263.5,-190.65"/>
</g>
<!-- OrdersModule -->
<g id="node7" class="node">
<title>OrdersModule</title>
<polygon fill="#8dd3c7" stroke="black" points="881.64,-160.8 878.64,-164.8 857.64,-164.8 854.64,-160.8 784.36,-160.8 784.36,-124.8 881.64,-124.8 881.64,-160.8"/>
<text text-anchor="middle" x="833" y="-138.6" font-family="Times,serif" font-size="14.00">OrdersModule</text>
</g>
<!-- OrdersModule&#45;&gt;AppModule -->
<g id="edge7" class="edge">
<title>OrdersModule&#45;&gt;AppModule</title>
<path fill="none" stroke="black" d="M868.54,-160.81C868.54,-210.5 868.54,-345.8 868.54,-345.8 868.54,-345.8 649.68,-345.8 649.68,-345.8"/>
<polygon fill="black" stroke="black" points="649.68,-342.3 639.68,-345.8 649.68,-349.3 649.68,-342.3"/>
</g>
<!-- PricesModule -->
<g id="node8" class="node">
<title>PricesModule</title>
<polygon fill="#8dd3c7" stroke="black" points="1634.76,-160.8 1631.76,-164.8 1610.76,-164.8 1607.76,-160.8 1541.24,-160.8 1541.24,-124.8 1634.76,-124.8 1634.76,-160.8"/>
<text text-anchor="middle" x="1588" y="-138.6" font-family="Times,serif" font-size="14.00">PricesModule</text>
</g>
<!-- ProductsModule -->
<g id="node9" class="node">
<title>ProductsModule</title>
<polygon fill="#8dd3c7" stroke="black" points="855.04,-236.8 852.04,-240.8 831.04,-240.8 828.04,-236.8 746.96,-236.8 746.96,-200.8 855.04,-200.8 855.04,-236.8"/>
<text text-anchor="middle" x="801" y="-214.6" font-family="Times,serif" font-size="14.00">ProductsModule</text>
</g>
<!-- PricesModule&#45;&gt;ProductsModule -->
<g id="edge34" class="edge">
<title>PricesModule&#45;&gt;ProductsModule</title>
<path fill="none" stroke="black" d="M1619.25,-160.91C1619.25,-170.7 1619.25,-180.8 1619.25,-180.8 1619.25,-180.8 819.73,-180.8 819.73,-180.8 819.73,-180.8 819.73,-190.69 819.73,-190.69"/>
<polygon fill="black" stroke="black" points="816.23,-190.69 819.73,-200.69 823.23,-190.69 816.23,-190.69"/>
</g>
<!-- PricesModule&#45;&gt;AppModule -->
<g id="edge8" class="edge">
<title>PricesModule&#45;&gt;AppModule</title>
<path fill="none" stroke="black" d="M1603.63,-160.97C1603.63,-164.85 1603.63,-167.8 1603.63,-167.8 1603.63,-167.8 598,-167.8 598,-167.8 598,-167.8 598,-331.74 598,-331.74"/>
<polygon fill="black" stroke="black" points="594.5,-331.74 598,-341.74 601.5,-331.74 594.5,-331.74"/>
</g>
<!-- PricesService  -->
<g id="node30" class="node">
<title>PricesService </title>
<polygon fill="#fb8072" stroke="black" points="2612.69,-236.8 2517.31,-236.8 2517.31,-200.8 2612.69,-200.8 2612.69,-236.8"/>
<text text-anchor="middle" x="2565" y="-214.6" font-family="Times,serif" font-size="14.00">PricesService </text>
</g>
<!-- PricesModule&#45;&gt;PricesService  -->
<g id="edge32" class="edge">
<title>PricesModule&#45;&gt;PricesService </title>
<path fill="none" stroke="black" stroke-dasharray="5,2" d="M1634.79,-136.8C1829.45,-136.8 2565,-136.8 2565,-136.8 2565,-136.8 2565,-190.6 2565,-190.6"/>
<polygon fill="black" stroke="black" points="2561.5,-190.6 2565,-200.6 2568.5,-190.6 2561.5,-190.6"/>
</g>
<!-- ProductsModule&#45;&gt;AppModule -->
<g id="edge9" class="edge">
<title>ProductsModule&#45;&gt;AppModule</title>
<path fill="none" stroke="black" d="M746.86,-229.8C693.19,-229.8 618.91,-229.8 618.91,-229.8 618.91,-229.8 618.91,-331.72 618.91,-331.72"/>
<polygon fill="black" stroke="black" points="615.41,-331.72 618.91,-341.72 622.41,-331.72 615.41,-331.72"/>
</g>
<!-- ProductsService  -->
<g id="node32" class="node">
<title>ProductsService </title>
<polygon fill="#fb8072" stroke="black" points="524.47,-160.8 413.53,-160.8 413.53,-124.8 524.47,-124.8 524.47,-160.8"/>
<text text-anchor="middle" x="469" y="-138.6" font-family="Times,serif" font-size="14.00">ProductsService </text>
</g>
<!-- ProductsModule&#45;&gt;ProductsService  -->
<g id="edge36" class="edge">
<title>ProductsModule&#45;&gt;ProductsService </title>
<path fill="none" stroke="black" stroke-dasharray="5,2" d="M746.77,-208.8C654.53,-208.8 477,-208.8 477,-208.8 477,-208.8 477,-170.83 477,-170.83"/>
<polygon fill="black" stroke="black" points="480.5,-170.83 477,-160.83 473.5,-170.83 480.5,-170.83"/>
</g>
<!-- SearchModule -->
<g id="node10" class="node">
<title>SearchModule</title>
<polygon fill="#8dd3c7" stroke="black" points="1249.64,-160.8 1246.64,-164.8 1225.64,-164.8 1222.64,-160.8 1152.36,-160.8 1152.36,-124.8 1249.64,-124.8 1249.64,-160.8"/>
<text text-anchor="middle" x="1201" y="-138.6" font-family="Times,serif" font-size="14.00">SearchModule</text>
</g>
<!-- SearchModule&#45;&gt;ProductsModule -->
<g id="edge35" class="edge">
<title>SearchModule&#45;&gt;ProductsModule</title>
<path fill="none" stroke="black" d="M1184.73,-160.81C1184.73,-183.29 1184.73,-218.8 1184.73,-218.8 1184.73,-218.8 865.16,-218.8 865.16,-218.8"/>
<polygon fill="black" stroke="black" points="865.16,-215.3 855.16,-218.8 865.16,-222.3 865.16,-215.3"/>
</g>
<!-- SearchModule&#45;&gt;AppModule -->
<g id="edge10" class="edge">
<title>SearchModule&#45;&gt;AppModule</title>
<path fill="none" stroke="black" d="M1217.27,-160.96C1217.27,-212.47 1217.27,-355.8 1217.27,-355.8 1217.27,-355.8 650.08,-355.8 650.08,-355.8"/>
<polygon fill="black" stroke="black" points="650.08,-352.3 640.08,-355.8 650.08,-359.3 650.08,-352.3"/>
</g>
<!-- SentryModule -->
<g id="node11" class="node">
<title>SentryModule</title>
<polygon fill="#8dd3c7" stroke="black" points="996.1,-160.8 993.1,-164.8 972.1,-164.8 969.1,-160.8 899.9,-160.8 899.9,-124.8 996.1,-124.8 996.1,-160.8"/>
<text text-anchor="middle" x="948" y="-138.6" font-family="Times,serif" font-size="14.00">SentryModule</text>
</g>
<!-- SentryModule&#45;&gt;AppModule -->
<g id="edge11" class="edge">
<title>SentryModule&#45;&gt;AppModule</title>
<path fill="none" stroke="black" d="M948,-161.08C948,-211.5 948,-348.8 948,-348.8 948,-348.8 649.87,-348.8 649.87,-348.8"/>
<polygon fill="black" stroke="black" points="649.87,-345.3 639.87,-348.8 649.87,-352.3 649.87,-345.3"/>
</g>
<!-- UsersModule&#45;&gt;AuthenticationModule -->
<g id="edge14" class="edge">
<title>UsersModule&#45;&gt;AuthenticationModule</title>
<path fill="none" stroke="black" d="M1356.43,-236.89C1356.43,-276.79 1356.43,-368.8 1356.43,-368.8 1356.43,-368.8 1482.56,-368.8 1482.56,-368.8"/>
<polygon fill="black" stroke="black" points="1482.56,-372.3 1492.56,-368.8 1482.56,-365.3 1482.56,-372.3"/>
</g>
<!-- UsersModule&#45;&gt;EmailConfirmationModule -->
<g id="edge25" class="edge">
<title>UsersModule&#45;&gt;EmailConfirmationModule</title>
<path fill="none" stroke="black" d="M1374.94,-227.8C1428.34,-227.8 1509.23,-227.8 1509.23,-227.8 1509.23,-227.8 1509.23,-266.49 1509.23,-266.49"/>
<polygon fill="black" stroke="black" points="1505.73,-266.49 1509.23,-276.49 1512.73,-266.49 1505.73,-266.49"/>
</g>
<!-- UsersModule&#45;&gt;AppModule -->
<g id="edge12" class="edge">
<title>UsersModule&#45;&gt;AppModule</title>
<path fill="none" stroke="black" d="M1338.14,-236.91C1338.14,-275.39 1338.14,-361.8 1338.14,-361.8 1338.14,-361.8 649.91,-361.8 649.91,-361.8"/>
<polygon fill="black" stroke="black" points="649.91,-358.3 639.91,-361.8 649.91,-365.3 649.91,-358.3"/>
</g>
<!-- UsersService  -->
<g id="node36" class="node">
<title>UsersService </title>
<polygon fill="#fb8072" stroke="black" points="523.85,-312.8 430.15,-312.8 430.15,-276.8 523.85,-276.8 523.85,-312.8"/>
<text text-anchor="middle" x="477" y="-290.6" font-family="Times,serif" font-size="14.00">UsersService </text>
</g>
<!-- UsersModule&#45;&gt;UsersService  -->
<g id="edge42" class="edge">
<title>UsersModule&#45;&gt;UsersService </title>
<path fill="none" stroke="black" stroke-dasharray="5,2" d="M1319.86,-236.81C1319.86,-259.29 1319.86,-294.8 1319.86,-294.8 1319.86,-294.8 533.82,-294.8 533.82,-294.8"/>
<polygon fill="black" stroke="black" points="533.82,-291.3 523.82,-294.8 533.82,-298.3 533.82,-291.3"/>
</g>
<!-- AuthenticationService -->
<g id="node15" class="node">
<title>AuthenticationService</title>
<ellipse fill="#fdb462" stroke="black" cx="2145" cy="-294.8" rx="97.27" ry="18"/>
<text text-anchor="middle" x="2145" y="-290.6" font-family="Times,serif" font-size="14.00">AuthenticationService</text>
</g>
<!-- AuthenticationService&#45;&gt;AuthenticationModule -->
<g id="edge16" class="edge">
<title>AuthenticationService&#45;&gt;AuthenticationModule</title>
<path fill="none" stroke="black" d="M2145,-313.1C2145,-331.07 2145,-355.8 2145,-355.8 2145,-355.8 1645.53,-355.8 1645.53,-355.8"/>
<polygon fill="black" stroke="black" points="1645.53,-352.3 1635.53,-355.8 1645.53,-359.3 1645.53,-352.3"/>
</g>
<!-- JwtRefreshTokenStrategy -->
<g id="node16" class="node">
<title>JwtRefreshTokenStrategy</title>
<ellipse fill="#fdb462" stroke="black" cx="1918" cy="-294.8" rx="111.15" ry="18"/>
<text text-anchor="middle" x="1918" y="-290.6" font-family="Times,serif" font-size="14.00">JwtRefreshTokenStrategy</text>
</g>
<!-- JwtRefreshTokenStrategy&#45;&gt;AuthenticationModule -->
<g id="edge17" class="edge">
<title>JwtRefreshTokenStrategy&#45;&gt;AuthenticationModule</title>
<path fill="none" stroke="black" d="M1918,-312.83C1918,-329.2 1918,-350.8 1918,-350.8 1918,-350.8 1645.64,-350.8 1645.64,-350.8"/>
<polygon fill="black" stroke="black" points="1645.64,-347.3 1635.64,-350.8 1645.64,-354.3 1645.64,-347.3"/>
</g>
<!-- JwtStrategy -->
<g id="node17" class="node">
<title>JwtStrategy</title>
<ellipse fill="#fdb462" stroke="black" cx="1732" cy="-294.8" rx="56.76" ry="18"/>
<text text-anchor="middle" x="1732" y="-290.6" font-family="Times,serif" font-size="14.00">JwtStrategy</text>
</g>
<!-- JwtStrategy&#45;&gt;AuthenticationModule -->
<g id="edge18" class="edge">
<title>JwtStrategy&#45;&gt;AuthenticationModule</title>
<path fill="none" stroke="black" d="M1732,-312.99C1732,-327.98 1732,-346.8 1732,-346.8 1732,-346.8 1645.73,-346.8 1645.73,-346.8"/>
<polygon fill="black" stroke="black" points="1645.73,-343.3 1635.73,-346.8 1645.73,-350.3 1645.73,-343.3"/>
</g>
<!-- JwtTwoFactorStrategy -->
<g id="node18" class="node">
<title>JwtTwoFactorStrategy</title>
<ellipse fill="#fdb462" stroke="black" cx="2805" cy="-294.8" rx="98.99" ry="18"/>
<text text-anchor="middle" x="2805" y="-290.6" font-family="Times,serif" font-size="14.00">JwtTwoFactorStrategy</text>
</g>
<!-- JwtTwoFactorStrategy&#45;&gt;AuthenticationModule -->
<g id="edge19" class="edge">
<title>JwtTwoFactorStrategy&#45;&gt;AuthenticationModule</title>
<path fill="none" stroke="black" d="M2805,-313.09C2805,-335.01 2805,-368.8 2805,-368.8 2805,-368.8 1645.63,-368.8 1645.63,-368.8"/>
<polygon fill="black" stroke="black" points="1645.63,-365.3 1635.63,-368.8 1645.63,-372.3 1645.63,-365.3"/>
</g>
<!-- LocalStrategy -->
<g id="node19" class="node">
<title>LocalStrategy</title>
<ellipse fill="#fdb462" stroke="black" cx="2623" cy="-294.8" rx="65.41" ry="18"/>
<text text-anchor="middle" x="2623" y="-290.6" font-family="Times,serif" font-size="14.00">LocalStrategy</text>
</g>
<!-- LocalStrategy&#45;&gt;AuthenticationModule -->
<g id="edge20" class="edge">
<title>LocalStrategy&#45;&gt;AuthenticationModule</title>
<path fill="none" stroke="black" d="M2623,-312.83C2623,-333.57 2623,-364.8 2623,-364.8 2623,-364.8 1645.54,-364.8 1645.54,-364.8"/>
<polygon fill="black" stroke="black" points="1645.54,-361.3 1635.54,-364.8 1645.54,-368.3 1645.54,-361.3"/>
</g>
<!-- TwoFactorAuthenticationService -->
<g id="node20" class="node">
<title>TwoFactorAuthenticationService</title>
<ellipse fill="#fdb462" stroke="black" cx="2400" cy="-294.8" rx="139.5" ry="18"/>
<text text-anchor="middle" x="2400" y="-290.6" font-family="Times,serif" font-size="14.00">TwoFactorAuthenticationService</text>
</g>
<!-- TwoFactorAuthenticationService&#45;&gt;AuthenticationModule -->
<g id="edge21" class="edge">
<title>TwoFactorAuthenticationService&#45;&gt;AuthenticationModule</title>
<path fill="none" stroke="black" d="M2400,-312.91C2400,-332.14 2400,-359.8 2400,-359.8 2400,-359.8 1645.28,-359.8 1645.28,-359.8"/>
<polygon fill="black" stroke="black" points="1645.28,-356.3 1635.28,-359.8 1645.28,-363.3 1645.28,-356.3"/>
</g>
<!-- CompaniesService -->
<g id="node22" class="node">
<title>CompaniesService</title>
<ellipse fill="#fdb462" stroke="black" cx="1758" cy="-218.8" rx="83.38" ry="18"/>
<text text-anchor="middle" x="1758" y="-214.6" font-family="Times,serif" font-size="14.00">CompaniesService</text>
</g>
<!-- CompaniesService&#45;&gt;CompaniesModule -->
<g id="edge23" class="edge">
<title>CompaniesService&#45;&gt;CompaniesModule</title>
<path fill="none" stroke="black" d="M1674.31,-218.8C1564.36,-218.8 1385.08,-218.8 1385.08,-218.8 1385.08,-218.8 1385.08,-170.81 1385.08,-170.81"/>
<polygon fill="black" stroke="black" points="1388.58,-170.81 1385.08,-160.81 1381.58,-170.81 1388.58,-170.81"/>
</g>
<!-- EmailModule -->
<g id="node23" class="node">
<title>EmailModule</title>
<polygon fill="#8dd3c7" stroke="black" points="3193.49,-236.8 3190.49,-240.8 3169.49,-240.8 3166.49,-236.8 3100.51,-236.8 3100.51,-200.8 3193.49,-200.8 3193.49,-236.8"/>
<text text-anchor="middle" x="3147" y="-214.6" font-family="Times,serif" font-size="14.00">EmailModule</text>
</g>
<!-- EmailModule&#45;&gt;EmailConfirmationModule -->
<g id="edge24" class="edge">
<title>EmailModule&#45;&gt;EmailConfirmationModule</title>
<path fill="none" stroke="black" d="M3147,-236.86C3147,-248.24 3147,-260.8 3147,-260.8 3147,-260.8 1588,-260.8 1588,-260.8 1588,-260.8 1588,-266.61 1588,-266.61"/>
<polygon fill="black" stroke="black" points="1584.5,-266.61 1588,-276.61 1591.5,-266.61 1584.5,-266.61"/>
</g>
<!-- EmailService  -->
<g id="node26" class="node">
<title>EmailService </title>
<polygon fill="#fb8072" stroke="black" points="3261.42,-160.8 3166.58,-160.8 3166.58,-124.8 3261.42,-124.8 3261.42,-160.8"/>
<text text-anchor="middle" x="3214" y="-138.6" font-family="Times,serif" font-size="14.00">EmailService </text>
</g>
<!-- EmailModule&#45;&gt;EmailService  -->
<g id="edge28" class="edge">
<title>EmailModule&#45;&gt;EmailService </title>
<path fill="none" stroke="black" stroke-dasharray="5,2" d="M3180.02,-200.79C3180.02,-200.79 3180.02,-170.95 3180.02,-170.95"/>
<polygon fill="black" stroke="black" points="3183.52,-170.95 3180.02,-160.95 3176.52,-170.95 3183.52,-170.95"/>
</g>
<!-- EmailConfirmationService -->
<g id="node25" class="node">
<title>EmailConfirmationService</title>
<ellipse fill="#fdb462" stroke="black" cx="2768" cy="-218.8" rx="115.18" ry="18"/>
<text text-anchor="middle" x="2768" y="-214.6" font-family="Times,serif" font-size="14.00">EmailConfirmationService</text>
</g>
<!-- EmailConfirmationService&#45;&gt;EmailConfirmationModule -->
<g id="edge27" class="edge">
<title>EmailConfirmationService&#45;&gt;EmailConfirmationModule</title>
<path fill="none" stroke="black" d="M2670.56,-228.48C2670.56,-235.87 2670.56,-244.8 2670.56,-244.8 2670.56,-244.8 1572.37,-244.8 1572.37,-244.8 1572.37,-244.8 1572.37,-266.75 1572.37,-266.75"/>
<polygon fill="black" stroke="black" points="1568.87,-266.75 1572.37,-276.75 1575.87,-266.75 1568.87,-266.75"/>
</g>
<!-- EmailService -->
<g id="node27" class="node">
<title>EmailService</title>
<ellipse fill="#fdb462" stroke="black" cx="3080" cy="-142.8" rx="63.12" ry="18"/>
<text text-anchor="middle" x="3080" y="-138.6" font-family="Times,serif" font-size="14.00">EmailService</text>
</g>
<!-- EmailService&#45;&gt;EmailModule -->
<g id="edge29" class="edge">
<title>EmailService&#45;&gt;EmailModule</title>
<path fill="none" stroke="black" d="M3121.78,-156.39C3121.78,-156.39 3121.78,-190.76 3121.78,-190.76"/>
<polygon fill="black" stroke="black" points="3118.28,-190.76 3121.78,-200.76 3125.28,-190.76 3118.28,-190.76"/>
</g>
<!-- ManagersService -->
<g id="node29" class="node">
<title>ManagersService</title>
<ellipse fill="#fdb462" stroke="black" cx="2107" cy="-218.8" rx="78.13" ry="18"/>
<text text-anchor="middle" x="2107" y="-214.6" font-family="Times,serif" font-size="14.00">ManagersService</text>
</g>
<!-- ManagersService&#45;&gt;ManagersModule -->
<g id="edge31" class="edge">
<title>ManagersService&#45;&gt;ManagersModule</title>
<path fill="none" stroke="black" d="M2107,-200.77C2107,-193.95 2107,-187.8 2107,-187.8 2107,-187.8 1495.08,-187.8 1495.08,-187.8 1495.08,-187.8 1495.08,-170.84 1495.08,-170.84"/>
<polygon fill="black" stroke="black" points="1498.58,-170.84 1495.08,-160.84 1491.58,-170.84 1498.58,-170.84"/>
</g>
<!-- PricesService -->
<g id="node31" class="node">
<title>PricesService</title>
<ellipse fill="#fdb462" stroke="black" cx="2429" cy="-218.8" rx="63.68" ry="18"/>
<text text-anchor="middle" x="2429" y="-214.6" font-family="Times,serif" font-size="14.00">PricesService</text>
</g>
<!-- PricesService&#45;&gt;PricesModule -->
<g id="edge33" class="edge">
<title>PricesService&#45;&gt;PricesModule</title>
<path fill="none" stroke="black" d="M2429,-200.77C2429,-180.03 2429,-148.8 2429,-148.8 2429,-148.8 1645.02,-148.8 1645.02,-148.8"/>
<polygon fill="black" stroke="black" points="1645.02,-145.3 1635.02,-148.8 1645.02,-152.3 1645.02,-145.3"/>
</g>
<!-- ProductsSearchService -->
<g id="node33" class="node">
<title>ProductsSearchService</title>
<ellipse fill="#fdb462" stroke="black" cx="124" cy="-142.8" rx="100.12" ry="18"/>
<text text-anchor="middle" x="124" y="-138.6" font-family="Times,serif" font-size="14.00">ProductsSearchService</text>
</g>
<!-- ProductsSearchService&#45;&gt;ProductsModule -->
<g id="edge37" class="edge">
<title>ProductsSearchService&#45;&gt;ProductsModule</title>
<path fill="none" stroke="black" d="M124,-160.95C124,-184.56 124,-222.8 124,-222.8 124,-222.8 736.74,-222.8 736.74,-222.8"/>
<polygon fill="black" stroke="black" points="736.74,-226.3 746.74,-222.8 736.74,-219.3 736.74,-226.3"/>
</g>
<!-- ProductsService -->
<g id="node34" class="node">
<title>ProductsService</title>
<ellipse fill="#fdb462" stroke="black" cx="316" cy="-142.8" rx="73.57" ry="18"/>
<text text-anchor="middle" x="316" y="-138.6" font-family="Times,serif" font-size="14.00">ProductsService</text>
</g>
<!-- ProductsService&#45;&gt;ProductsModule -->
<g id="edge38" class="edge">
<title>ProductsService&#45;&gt;ProductsModule</title>
<path fill="none" stroke="black" d="M335.91,-160.47C335.91,-182.08 335.91,-215.8 335.91,-215.8 335.91,-215.8 736.74,-215.8 736.74,-215.8"/>
<polygon fill="black" stroke="black" points="736.74,-219.3 746.74,-215.8 736.74,-212.3 736.74,-219.3"/>
</g>
<!-- SentryService -->
<g id="node35" class="node">
<title>SentryService</title>
<ellipse fill="#fdb462" stroke="black" cx="948" cy="-66.8" rx="65.41" ry="18"/>
<text text-anchor="middle" x="948" y="-62.6" font-family="Times,serif" font-size="14.00">SentryService</text>
</g>
<!-- SentryService&#45;&gt;SentryModule -->
<g id="edge39" class="edge">
<title>SentryService&#45;&gt;SentryModule</title>
<path fill="none" stroke="black" d="M948,-84.81C948,-84.81 948,-114.65 948,-114.65"/>
<polygon fill="black" stroke="black" points="944.5,-114.65 948,-124.65 951.5,-114.65 944.5,-114.65"/>
</g>
<!-- UsersService -->
<g id="node37" class="node">
<title>UsersService</title>
<ellipse fill="#fdb462" stroke="black" cx="344" cy="-294.8" rx="61.95" ry="18"/>
<text text-anchor="middle" x="344" y="-290.6" font-family="Times,serif" font-size="14.00">UsersService</text>
</g>
<!-- UsersService&#45;&gt;UsersModule -->
<g id="edge43" class="edge">
<title>UsersService&#45;&gt;UsersModule</title>
<path fill="none" stroke="black" d="M397.88,-285.71C397.88,-278.21 397.88,-268.8 397.88,-268.8 397.88,-268.8 1301.57,-268.8 1301.57,-268.8 1301.57,-268.8 1301.57,-246.85 1301.57,-246.85"/>
<polygon fill="black" stroke="black" points="1305.07,-246.85 1301.57,-236.85 1298.07,-246.85 1305.07,-246.85"/>
</g>
</g>
</svg>
