<?xml version="1.0" encoding="UTF-8" standalone="no"?>
<!DOCTYPE svg PUBLIC "-//W3C//DTD SVG 1.1//EN"
 "http://www.w3.org/Graphics/SVG/1.1/DTD/svg11.dtd">
<!-- Generated by graphviz version 2.47.3 (20210619.1520)
 -->
<!-- Title: dependencies Pages: 1 -->
<svg width="459pt" height="247pt"
 viewBox="0.00 0.00 459.00 246.80" xmlns="http://www.w3.org/2000/svg" xmlns:xlink="http://www.w3.org/1999/xlink">
<g id="graph0" class="graph" transform="scale(1 1) rotate(0) translate(4 242.8)">
<title>dependencies</title>
<polygon fill="white" stroke="transparent" points="-4,4 -4,-242.8 455,-242.8 455,4 -4,4"/>
<text text-anchor="middle" x="225.5" y="-8.2" font-family="sans-serif" font-size="14.00">dependencies</text>
<g id="clust1" class="cluster">
<title>cluster_UsersModule</title>
<polygon fill="none" stroke="black" stroke-dasharray="1,5" points="8,-32.8 8,-230.8 443,-230.8 443,-32.8 8,-32.8"/>
</g>
<g id="clust3" class="cluster">
<title>cluster_UsersModule_imports</title>
<polygon fill="none" stroke="black" points="164,-40.8 164,-92.8 435,-92.8 435,-40.8 164,-40.8"/>
</g>
<g id="clust6" class="cluster">
<title>cluster_UsersModule_providers</title>
<polygon fill="none" stroke="black" points="16,-40.8 16,-92.8 156,-92.8 156,-40.8 16,-40.8"/>
</g>
<g id="clust4" class="cluster">
<title>cluster_UsersModule_exports</title>
<polygon fill="none" stroke="black" points="174,-170.8 174,-222.8 284,-222.8 284,-170.8 174,-170.8"/>
</g>
<!-- CompaniesModule -->
<g id="node1" class="node">
<title>CompaniesModule</title>
<polygon fill="#8dd3c7" stroke="black" points="427.04,-84.8 424.04,-88.8 403.04,-88.8 400.04,-84.8 304.96,-84.8 304.96,-48.8 427.04,-48.8 427.04,-84.8"/>
<text text-anchor="middle" x="366" y="-62.6" font-family="Times,serif" font-size="14.00">CompaniesModule</text>
</g>
<!-- UsersModule -->
<g id="node3" class="node">
<title>UsersModule</title>
<polygon fill="#8dd3c7" stroke="black" points="274.92,-149.8 271.92,-153.8 250.92,-153.8 247.92,-149.8 183.08,-149.8 183.08,-113.8 274.92,-113.8 274.92,-149.8"/>
<text text-anchor="middle" x="229" y="-127.6" font-family="Times,serif" font-size="14.00">UsersModule</text>
</g>
<!-- CompaniesModule&#45;&gt;UsersModule -->
<g id="edge1" class="edge">
<title>CompaniesModule&#45;&gt;UsersModule</title>
<path fill="none" stroke="black" d="M366,-84.91C366,-104.14 366,-131.8 366,-131.8 366,-131.8 285,-131.8 285,-131.8"/>
<polygon fill="black" stroke="black" points="285,-128.3 275,-131.8 285,-135.3 285,-128.3"/>
</g>
<!-- ManagersModule -->
<g id="node2" class="node">
<title>ManagersModule</title>
<polygon fill="#8dd3c7" stroke="black" points="286.24,-84.8 283.24,-88.8 262.24,-88.8 259.24,-84.8 171.76,-84.8 171.76,-48.8 286.24,-48.8 286.24,-84.8"/>
<text text-anchor="middle" x="229" y="-62.6" font-family="Times,serif" font-size="14.00">ManagersModule</text>
</g>
<!-- ManagersModule&#45;&gt;UsersModule -->
<g id="edge2" class="edge">
<title>ManagersModule&#45;&gt;UsersModule</title>
<path fill="none" stroke="black" d="M229,-84.91C229,-84.91 229,-103.79 229,-103.79"/>
<polygon fill="black" stroke="black" points="225.5,-103.79 229,-113.79 232.5,-103.79 225.5,-103.79"/>
</g>
<!-- UsersService  -->
<g id="node4" class="node">
<title>UsersService </title>
<polygon fill="#fb8072" stroke="black" points="275.85,-214.8 182.15,-214.8 182.15,-178.8 275.85,-178.8 275.85,-214.8"/>
<text text-anchor="middle" x="229" y="-192.6" font-family="Times,serif" font-size="14.00">UsersService </text>
</g>
<!-- UsersModule&#45;&gt;UsersService  -->
<g id="edge3" class="edge">
<title>UsersModule&#45;&gt;UsersService </title>
<path fill="none" stroke="black" stroke-dasharray="5,2" d="M229,-149.91C229,-149.91 229,-168.79 229,-168.79"/>
<polygon fill="black" stroke="black" points="225.5,-168.79 229,-178.79 232.5,-168.79 225.5,-168.79"/>
</g>
<!-- UsersService -->
<g id="node5" class="node">
<title>UsersService</title>
<ellipse fill="#fdb462" stroke="black" cx="86" cy="-66.8" rx="61.95" ry="18"/>
<text text-anchor="middle" x="86" y="-62.6" font-family="Times,serif" font-size="14.00">UsersService</text>
</g>
<!-- UsersService&#45;&gt;UsersModule -->
<g id="edge4" class="edge">
<title>UsersService&#45;&gt;UsersModule</title>
<path fill="none" stroke="black" d="M86,-84.91C86,-104.14 86,-131.8 86,-131.8 86,-131.8 172.97,-131.8 172.97,-131.8"/>
<polygon fill="black" stroke="black" points="172.97,-135.3 182.97,-131.8 172.97,-128.3 172.97,-135.3"/>
</g>
</g>
</svg>
