<?xml version="1.0" encoding="UTF-8" standalone="no"?>
<!DOCTYPE svg PUBLIC "-//W3C//DTD SVG 1.1//EN"
 "http://www.w3.org/Graphics/SVG/1.1/DTD/svg11.dtd">
<!-- Generated by graphviz version 2.47.3 (20210619.1520)
 -->
<!-- Title: dependencies Pages: 1 -->
<svg width="656pt" height="247pt"
 viewBox="0.00 0.00 656.00 246.80" xmlns="http://www.w3.org/2000/svg" xmlns:xlink="http://www.w3.org/1999/xlink">
<g id="graph0" class="graph" transform="scale(1 1) rotate(0) translate(4 242.8)">
<title>dependencies</title>
<polygon fill="white" stroke="transparent" points="-4,4 -4,-242.8 652,-242.8 652,4 -4,4"/>
<text text-anchor="middle" x="324" y="-8.2" font-family="sans-serif" font-size="14.00">dependencies</text>
<g id="clust1" class="cluster">
<title>cluster_ProductsModule</title>
<polygon fill="none" stroke="black" stroke-dasharray="1,5" points="8,-32.8 8,-230.8 640,-230.8 640,-32.8 8,-32.8"/>
</g>
<g id="clust3" class="cluster">
<title>cluster_ProductsModule_imports</title>
<polygon fill="none" stroke="black" points="406,-40.8 406,-92.8 632,-92.8 632,-40.8 406,-40.8"/>
</g>
<g id="clust6" class="cluster">
<title>cluster_ProductsModule_providers</title>
<polygon fill="none" stroke="black" points="16,-40.8 16,-92.8 398,-92.8 398,-40.8 16,-40.8"/>
</g>
<g id="clust4" class="cluster">
<title>cluster_ProductsModule_exports</title>
<polygon fill="none" stroke="black" points="313,-170.8 313,-222.8 439,-222.8 439,-170.8 313,-170.8"/>
</g>
<!-- PricesModule -->
<g id="node1" class="node">
<title>PricesModule</title>
<polygon fill="#8dd3c7" stroke="black" points="623.76,-84.8 620.76,-88.8 599.76,-88.8 596.76,-84.8 530.24,-84.8 530.24,-48.8 623.76,-48.8 623.76,-84.8"/>
<text text-anchor="middle" x="577" y="-62.6" font-family="Times,serif" font-size="14.00">PricesModule</text>
</g>
<!-- ProductsModule -->
<g id="node3" class="node">
<title>ProductsModule</title>
<polygon fill="#8dd3c7" stroke="black" points="430.04,-149.8 427.04,-153.8 406.04,-153.8 403.04,-149.8 321.96,-149.8 321.96,-113.8 430.04,-113.8 430.04,-149.8"/>
<text text-anchor="middle" x="376" y="-127.6" font-family="Times,serif" font-size="14.00">ProductsModule</text>
</g>
<!-- PricesModule&#45;&gt;ProductsModule -->
<g id="edge1" class="edge">
<title>PricesModule&#45;&gt;ProductsModule</title>
<path fill="none" stroke="black" d="M577,-84.91C577,-104.14 577,-131.8 577,-131.8 577,-131.8 440.13,-131.8 440.13,-131.8"/>
<polygon fill="black" stroke="black" points="440.13,-128.3 430.13,-131.8 440.13,-135.3 440.13,-128.3"/>
</g>
<!-- SearchModule -->
<g id="node2" class="node">
<title>SearchModule</title>
<polygon fill="#8dd3c7" stroke="black" points="511.64,-84.8 508.64,-88.8 487.64,-88.8 484.64,-84.8 414.36,-84.8 414.36,-48.8 511.64,-48.8 511.64,-84.8"/>
<text text-anchor="middle" x="463" y="-62.6" font-family="Times,serif" font-size="14.00">SearchModule</text>
</g>
<!-- SearchModule&#45;&gt;ProductsModule -->
<g id="edge2" class="edge">
<title>SearchModule&#45;&gt;ProductsModule</title>
<path fill="none" stroke="black" d="M422.23,-84.91C422.23,-84.91 422.23,-103.79 422.23,-103.79"/>
<polygon fill="black" stroke="black" points="418.73,-103.79 422.23,-113.79 425.73,-103.79 418.73,-103.79"/>
</g>
<!-- ProductsService  -->
<g id="node4" class="node">
<title>ProductsService </title>
<polygon fill="#fb8072" stroke="black" points="431.47,-214.8 320.53,-214.8 320.53,-178.8 431.47,-178.8 431.47,-214.8"/>
<text text-anchor="middle" x="376" y="-192.6" font-family="Times,serif" font-size="14.00">ProductsService </text>
</g>
<!-- ProductsModule&#45;&gt;ProductsService  -->
<g id="edge3" class="edge">
<title>ProductsModule&#45;&gt;ProductsService </title>
<path fill="none" stroke="black" stroke-dasharray="5,2" d="M376,-149.91C376,-149.91 376,-168.79 376,-168.79"/>
<polygon fill="black" stroke="black" points="372.5,-168.79 376,-178.79 379.5,-168.79 372.5,-168.79"/>
</g>
<!-- ProductsSearchService -->
<g id="node5" class="node">
<title>ProductsSearchService</title>
<ellipse fill="#fdb462" stroke="black" cx="290" cy="-66.8" rx="100.12" ry="18"/>
<text text-anchor="middle" x="290" y="-62.6" font-family="Times,serif" font-size="14.00">ProductsSearchService</text>
</g>
<!-- ProductsSearchService&#45;&gt;ProductsModule -->
<g id="edge4" class="edge">
<title>ProductsSearchService&#45;&gt;ProductsModule</title>
<path fill="none" stroke="black" d="M355.89,-80.58C355.89,-80.58 355.89,-103.35 355.89,-103.35"/>
<polygon fill="black" stroke="black" points="352.39,-103.35 355.89,-113.35 359.39,-103.35 352.39,-103.35"/>
</g>
<!-- ProductsService -->
<g id="node6" class="node">
<title>ProductsService</title>
<ellipse fill="#fdb462" stroke="black" cx="98" cy="-66.8" rx="73.57" ry="18"/>
<text text-anchor="middle" x="98" y="-62.6" font-family="Times,serif" font-size="14.00">ProductsService</text>
</g>
<!-- ProductsService&#45;&gt;ProductsModule -->
<g id="edge5" class="edge">
<title>ProductsService&#45;&gt;ProductsModule</title>
<path fill="none" stroke="black" d="M98,-84.91C98,-104.14 98,-131.8 98,-131.8 98,-131.8 311.74,-131.8 311.74,-131.8"/>
<polygon fill="black" stroke="black" points="311.74,-135.3 321.74,-131.8 311.74,-128.3 311.74,-135.3"/>
</g>
</g>
</svg>
